<?xml version="1.0" encoding="utf-8"?>
<!-- Generator: Adobe Illustrator 19.0.0, SVG Export Plug-In . SVG Version: 6.00 Build 0)  -->
<!DOCTYPE svg PUBLIC "-//W3C//DTD SVG 1.1//EN" "http://www.w3.org/Graphics/SVG/1.1/DTD/svg11.dtd">
<svg version="1.1" id="Calque_1" xmlns="http://www.w3.org/2000/svg" xmlns:xlink="http://www.w3.org/1999/xlink" x="0px" y="0px"
	 viewBox="0 0 424.8 152.4" style="enable-background:new 0 0 424.8 152.4;" xml:space="preserve">
<style type="text/css">
	.st0{fill:#009790;}
	.st1{fill:#3F4A56;}
</style>
<g>
	<path class="st0" d="M2.3,104.5V14.2c0-2.9,1-5.4,3.1-7.5c2.1-2.1,4.5-3.1,7.5-3.1h10.3v37.5h41.6V3.7h21.1v100.8H64.7V59.6H23.1
		v44.8H2.3z"/>
	<path class="st0" d="M97.4,104.5V14.2c0-2.9,1-5.4,3.1-7.5c2.1-2.1,4.5-3.1,7.5-3.1h62.7v17.3h-52.7v21.7h39.3v6.7
		c0,2.9-1,5.4-3.1,7.5c-2.1,2.1-4.5,3.1-7.5,3.1h-28.7v25.8h52.7v18.8H97.4z"/>
	<path class="st0" d="M181.7,104.5V14.2l0-10.5c0,0,9.7-0.2,10.5-0.1c11.1,0.8,10.5,12.2,10.5,12.2l-0.2,70h49.2v18.8H181.7z"/>
	<path class="st1" d="M262.4,104.5V14.2c0-2.9,1-5.4,3.1-7.5c2.1-2.1,4.5-3.1,7.5-3.1h10.3v37.5h41.6V3.7h21.1v100.8h-21.1V59.6
		h-41.6v44.8H262.4z"/>
	<path class="st1" d="M421.3,104.7h-18.6l-0.1-3.7c0,0-5,4.7-20.5,4.9c-7,0.1-13.2-1.9-18.5-5.7c-5.3-3.8-7.9-10.1-7.9-18.9
		c0-8.2,2.4-14.1,7.2-17.6c4.8-3.5,10.9-5.9,18.3-7c1,0,2.1-0.1,3.5-0.4c1.4-0.3,2.9-0.5,4.7-0.7c8.6-1.2,12.9-3.7,12.9-7.6
		c0-2.9-1.5-4.8-4.5-5.7c-3-0.9-5.8-1.3-8.4-1.3c-2.7,0-5.2,0.4-7.3,1.2c-2.2,0.8-3.7,2.2-4.7,4.4h-19.6c0.8-6.1,3.5-11,8.2-14.9
		c5.3-4.5,12.8-6.7,22.6-6.7c10.9,0,19.1,1.9,24.6,5.6c5.7,3.9,8.5,9.4,8.5,16.4v26.7C421.7,80.8,421.3,104.7,421.3,104.7z
		 M402.7,65.2c-2.7,1.4-6.5,2.6-11.4,3.8l-6.7,1.5c-3.5,1-6.1,2.2-7.6,3.8c-1.4,2.2-2.1,4.3-2.1,6.4c0,2.9,0.9,5.3,2.6,7
		c1.8,1.6,4.3,2.3,7.6,2.3c5.5,0,9.8-1.6,12.9-4.7c3.1-3.1,4.7-7.4,4.7-12.9V65.2z"/>
	<g>
		<path class="st1" d="M2.2,126.8h2.2v10.7h9.5v-10.7H16v24.3h-2.2v-11.7H4.4v11.7H2.2V126.8z"/>
		<path class="st1" d="M32,147.2c0,1.3,0.1,2.7,0.2,4h-1.8l-0.1-2.5h-0.1c-1.2,2-2.7,2.8-5,2.8c-2.8,0-5-2.3-5-5.2
			c0-5.7,6-5.8,8.6-5.8h1.3c0-2.2,0-5.4-3.7-5.4c-2.4,0-4.3,1.7-4.5,1.8l-0.3-2.2c1.7-0.9,2.9-1.6,4.9-1.6c5.5,0,5.5,4.6,5.5,5.9
			V147.2z M30.1,142.2c-4.2,0-7.7,0-7.7,4c0,1.5,1.1,3.3,3.3,3.3c0.9,0,4.4-0.4,4.4-5.2V142.2z"/>
		<path class="st1" d="M48.1,145.7c0,1.8,0.1,3.7,0.1,5.5h-1.9c-0.1-0.8-0.1-1.3-0.1-2.6h-0.1c-0.2,0.8-1.6,2.9-4.5,2.9
			c-3.9,0-4.9-2.8-4.9-5.6v-12.4h2v12c0,1.2,0,4.2,3.3,4.2c2.5,0,4-2.3,4-5.1v-11.1h2V145.7z"/>
		<path class="st1" d="M55.8,129.2v4.2h3.6v1.9h-3.6v11.6c0,1.4,0.2,2.7,2,2.7c0.9,0,1.3-0.2,1.7-0.4v2c-0.5,0.2-1.4,0.2-2.3,0.2
			c-2.6,0-3.3-2-3.3-4v-12.1h-2.7v-1.9h2.7v-3.6L55.8,129.2z"/>
		<path class="st1" d="M63.7,143c0,6.6,4.2,6.6,5,6.6c1.2,0,2.8-0.6,3.8-1.5l0.1,2.3c-0.8,0.5-2,1-4.2,1c-7,0-7-7.4-7-9.1
			c0-6.7,3.3-9.1,6.3-9.1c5.2,0,5.7,5.5,5.7,9.8H63.7z M71.4,141.1c0-4.7-2-6-3.6-6c-2.8,0-4,3.7-4,6H71.4z"/>
		<path class="st1" d="M86.2,126.8h10.3v2h-8.2v8.7h7.8v2h-7.8v9.6h8.5v2H86.2V126.8z M95.3,120.9l-3.3,5h-1.7l2.7-5H95.3z"/>
		<path class="st1" d="M110.9,136.1c-0.8-0.7-2.2-0.9-3.2-0.9c-2.7,0-5.2,1.9-5.2,6.6c0,6.5,3.6,7.6,5.5,7.6c0.8,0,2.4-0.2,3-0.9
			l0.2,2.3c-0.9,0.4-2.2,0.7-3.5,0.7c-3.8,0-7.4-2.9-7.4-9.1c0-5.4,2.4-9.2,7.4-9.2c1.4,0,2.5,0.3,3.3,0.6L110.9,136.1z"/>
		<path class="st1" d="M113.2,142.3c0-4.5,1.5-9.1,6.7-9.1c5.2,0,6.7,4.7,6.7,9.1s-1.5,9.1-6.7,9.1
			C114.7,151.4,113.2,146.8,113.2,142.3z M124.4,142.3c0-1.4,0-7.3-4.5-7.3c-4.5,0-4.5,5.8-4.5,7.3c0,1.4,0,7.3,4.5,7.3
			C124.4,149.5,124.4,143.7,124.4,142.3z"/>
		<path class="st1" d="M130.5,125h2v26.2h-2V125z"/>
		<path class="st1" d="M138.7,143c0,6.6,4.2,6.6,5,6.6c1.2,0,2.8-0.6,3.8-1.5l0.1,2.3c-0.8,0.5-2,1-4.2,1c-7,0-7-7.4-7-9.1
			c0-6.7,3.3-9.1,6.3-9.1c5.2,0,5.7,5.5,5.7,9.8H138.7z M146.4,141.1c0-4.7-2-6-3.6-6c-2.8,0-4,3.7-4,6H146.4z"/>
		<path class="st1" d="M161.1,126.8h2.2v22.3h7.9v2h-10.1V126.8z"/>
		<path class="st1" d="M173.3,142.3c0-4.5,1.5-9.1,6.7-9.1c5.2,0,6.7,4.7,6.7,9.1s-1.5,9.1-6.7,9.1
			C174.8,151.4,173.3,146.8,173.3,142.3z M184.5,142.3c0-1.4,0-7.3-4.5-7.3c-4.5,0-4.5,5.8-4.5,7.3c0,1.4,0,7.3,4.5,7.3
			C184.5,149.5,184.5,143.7,184.5,142.3z"/>
		<path class="st1" d="M201.9,145.7c0,1.8,0.1,3.7,0.1,5.5h-1.9c-0.1-0.8-0.1-1.3-0.1-2.6h-0.1c-0.2,0.8-1.6,2.9-4.5,2.9
			c-3.9,0-4.9-2.8-4.9-5.6v-12.4h2v12c0,1.2,0,4.2,3.3,4.2c2.5,0,4-2.3,4-5.1v-11.1h2V145.7z"/>
		<path class="st1" d="M204.6,133.4h2.2l4.2,15.5h0.1l4.4-15.5h2l-5.2,17.8h-2.4L204.6,133.4z"/>
		<path class="st1" d="M230.4,147.2c0,1.3,0.1,2.7,0.2,4h-1.8l-0.1-2.5h-0.1c-1.2,2-2.7,2.8-5,2.8c-2.8,0-5-2.3-5-5.2
			c0-5.7,6-5.8,8.6-5.8h1.3c0-2.2,0-5.4-3.7-5.4c-2.4,0-4.3,1.7-4.5,1.8l-0.3-2.2c1.7-0.9,2.9-1.6,4.9-1.6c5.5,0,5.5,4.6,5.5,5.9
			V147.2z M228.5,142.2c-4.2,0-7.7,0-7.7,4c0,1.5,1.1,3.3,3.3,3.3c0.9,0,4.4-0.4,4.4-5.2V142.2z"/>
		<path class="st1" d="M235,126.3h2.4v3.1H235V126.3z M235.3,133.4h2v17.8h-2V133.4z"/>
		<path class="st1" d="M242.2,138.9c0-1.8-0.1-3.7-0.1-5.5h1.9c0.1,0.8,0.1,1.3,0.1,2.6h0.1c0.4-0.8,1.6-2.9,4.5-2.9
			c4.9,0,4.9,4.9,4.9,6.1v11.9h-2v-12c0-1.2,0-4.2-3.3-4.2c-2.5,0-4,2.3-4,5.1v11.1h-2V138.9z"/>
		<path class="st1" d="M279.5,150.3c-0.9,0.4-2.8,1.2-5.4,1.2c-5.8,0-8.3-4.2-8.3-9c0-5.4,2.8-9.5,7.4-9.5c3.9,0,7.2,2.3,7.2,9.6
			v0.8H270c0,3.1,1.2,4.9,4.6,4.9c2.7,0,3.9-0.8,4.7-1.4L279.5,150.3z M276.2,140.7c0-3.2-1-4.8-3-4.8c-2.3,0-3.2,2.4-3.2,4.8H276.2
			z"/>
		<path class="st1" d="M283.7,136.2c0-1.1,0-2.2-0.1-3h4c0,0.9,0.1,1.8,0.1,2.8h0.1h0c0.6-1.1,1.8-3,4.8-3c4.1,0,5.3,3,5.3,6.7v11.6
			h-4.3v-10.8c0-2.8-0.7-3.9-2.5-3.9c-2.3,0-3.1,1.9-3.1,4.2v10.5h-4.3V136.2z"/>
		<path class="st1" d="M311.6,126.8h4.5v9.9h7.2v-9.9h4.5v24.3h-4.5v-10.7H316v10.7h-4.5V126.8z"/>
		<path class="st1" d="M333.1,134.3c1.2-0.6,2.9-1.3,5.7-1.3c5.6,0,6.9,2.7,6.9,7.2v7.8c0,1.3,0.1,2.5,0.2,3.2H342
			c-0.2-0.7-0.2-1.6-0.2-2.4h-0.1c-1.1,1.5-2.4,2.7-5,2.7c-2.8,0-5.4-1.9-5.4-5.3c0-4.9,4-6.1,9.5-6.1h0.9v-0.7
			c0-1.8-0.9-3.4-3.3-3.4c-2.2,0-4.1,1-4.9,1.7L333.1,134.3z M341.6,142.4h-0.4c-3.7,0-5.9,0.8-5.9,3.4c0,1.6,1.1,2.8,2.8,2.8
			c2.6,0,3.5-1.9,3.5-5.1V142.4z"/>
		<path class="st1" d="M350,125.6h4.5v4.3H350V125.6z M350.1,133.2h4.3v18h-4.3V133.2z"/>
		<path class="st1" d="M358.8,136.2c0-1.1,0-2.2-0.1-3h4c0,0.9,0.1,1.8,0.1,2.8h0.1h0c0.6-1.1,1.8-3,4.8-3c4.1,0,5.3,3,5.3,6.7v11.6
			h-4.3v-10.8c0-2.8-0.7-3.9-2.5-3.9c-2.3,0-3.1,1.9-3.1,4.2v10.5h-4.3V136.2z"/>
		<path class="st1" d="M377.7,134.3c1.2-0.6,2.9-1.3,5.7-1.3c5.6,0,6.9,2.7,6.9,7.2v7.8c0,1.3,0.1,2.5,0.2,3.2h-3.9
			c-0.2-0.7-0.2-1.6-0.2-2.4h-0.1c-1.1,1.5-2.4,2.7-5,2.7c-2.8,0-5.4-1.9-5.4-5.3c0-4.9,4-6.1,9.5-6.1h0.9v-0.7
			c0-1.8-0.9-3.4-3.3-3.4c-2.2,0-4.1,1-4.9,1.7L377.7,134.3z M386.2,142.4h-0.4c-3.7,0-5.9,0.8-5.9,3.4c0,1.6,1.1,2.8,2.8,2.8
			c2.6,0,3.5-1.9,3.5-5.1V142.4z"/>
		<path class="st1" d="M408.5,148.2c0,1.1,0,2.2,0.1,3h-4c0-0.9-0.1-1.8-0.1-2.8l-0.1,0l0,0c-0.8,1.3-2,3-4.8,3
			c-4.1,0-5.3-3-5.3-6.7v-11.6h4.3V144c0,2.8,0.8,3.9,2.6,3.9c2.3,0,3-2.1,3-4.4v-10.3h4.3V148.2z"/>
		<path class="st1" d="M414,129.5l4.3-1.3v5h3.6v3.2h-3.6v9.3c0,1.9,0.7,2.5,2,2.5c0.8,0,1.3-0.2,1.6-0.4v3.1
			c-0.7,0.3-1.6,0.6-2.9,0.6c-3.2,0-5-1.5-5-5.2v-9.8h-2.9v-3.2h2.9V129.5z"/>
	</g>
</g>
</svg>
